<svg width="18" height="18" viewBox="0 0 18 18" fill="none" xmlns="http://www.w3.org/2000/svg">
<path d="M15.6797 5.67969V2.32031H12.3203V5.67969H15.6797ZM15.6797 10.6797V7.32031H12.3203V10.6797H15.6797ZM15.6797 15.6797V12.3203H12.3203V15.6797H15.6797ZM10.6797 5.67969V2.32031H7.32031V5.67969H10.6797ZM10.6797 10.6797V7.32031H7.32031V10.6797H10.6797ZM10.6797 15.6797V12.3203H7.32031V15.6797H10.6797ZM5.67969 5.67969V2.32031H2.32031V5.67969H5.67969ZM5.67969 10.6797V7.32031H2.32031V10.6797H5.67969ZM5.67969 15.6797V12.3203H2.32031V15.6797H5.67969ZM15.6797 0.679688C16.1224 0.679688 16.5 0.848958 16.8125 1.1875C17.151 1.5 17.3203 1.8776 17.3203 2.32031V15.6797C17.3203 16.1224 17.151 16.513 16.8125 16.8516C16.5 17.1641 16.1224 17.3203 15.6797 17.3203H2.32031C1.8776 17.3203 1.48698 17.1641 1.14844 16.8516C0.835938 16.513 0.679688 16.1224 0.679688 15.6797V2.32031C0.679688 1.8776 0.835938 1.5 1.14844 1.1875C1.48698 0.848958 1.8776 0.679688 2.32031 0.679688H15.6797Z" fill="#7F8489"/>
</svg>
