<svg width="16" height="16" viewBox="0 0 16 16" fill="none" xmlns="http://www.w3.org/2000/svg">
<path d="M14.4862 0.125H9.95131C9.18575 0.125 8.5625 0.74825 8.5625 1.51381V7.17369C8.5625 7.93925 9.18575 8.5625 9.95131 8.5625H14.4862C15.2517 8.5625 15.875 7.93925 15.875 7.17369V1.51381C15.875 0.74825 15.2517 0.125 14.4862 0.125ZM9.95131 7.4375C9.80562 7.4375 9.6875 7.31938 9.6875 7.17369V1.51381C9.6875 1.36812 9.80562 1.25 9.95131 1.25H14.4862C14.6319 1.25 14.75 1.36812 14.75 1.51381V7.17369C14.75 7.31938 14.6319 7.4375 14.4862 7.4375H9.95131Z" fill="#74797D"/>
<path d="M14.4862 9.6875H9.95131C9.18575 9.6875 8.5625 10.3108 8.5625 11.0763V14.4862C8.5625 15.2518 9.18575 15.875 9.95131 15.875H14.4862C15.2517 15.875 15.875 15.2518 15.875 14.4862V11.0763C15.875 10.3108 15.2517 9.6875 14.4862 9.6875ZM9.95131 14.75C9.80562 14.75 9.6875 14.6319 9.6875 14.4862V11.0763C9.6875 10.9306 9.80562 10.8125 9.95131 10.8125H14.4862C14.6319 10.8125 14.75 10.9306 14.75 11.0763V14.4862C14.75 14.6319 14.6319 14.75 14.4862 14.75H9.95131Z" fill="#74797D"/>
<path d="M6.04869 7.4375H1.51381C0.74825 7.4375 0.125 8.06075 0.125 8.82631V14.4862C0.125 15.2518 0.74825 15.875 1.51381 15.875H6.04869C6.81425 15.875 7.4375 15.2518 7.4375 14.4862V8.82631C7.4375 8.06075 6.81425 7.4375 6.04869 7.4375ZM1.51381 14.75C1.36812 14.75 1.25 14.6319 1.25 14.4862V8.82631C1.25 8.68062 1.36812 8.5625 1.51381 8.5625H6.04869C6.19438 8.5625 6.3125 8.68062 6.3125 8.82631V14.4862C6.3125 14.6319 6.19438 14.75 6.04869 14.75H1.51381Z" fill="#74797D"/>
<path d="M6.04869 0.125H1.51381C0.74825 0.125 0.125 0.74825 0.125 1.51381V4.92369C0.125 5.68925 0.74825 6.3125 1.51381 6.3125H6.04869C6.81425 6.3125 7.4375 5.68925 7.4375 4.92369V1.51381C7.4375 0.74825 6.81425 0.125 6.04869 0.125ZM1.51381 5.1875C1.36812 5.1875 1.25 5.06938 1.25 4.92369V1.51381C1.25 1.36812 1.36812 1.25 1.51381 1.25H6.04869C6.19438 1.25 6.3125 1.36812 6.3125 1.51381V4.92369C6.3125 5.06938 6.19438 5.1875 6.04869 5.1875H1.51381Z" fill="#74797D"/>
</svg>
