<svg width="16" height="16" viewBox="0 0 16 16" fill="none" xmlns="http://www.w3.org/2000/svg">
<path fill-rule="evenodd" clip-rule="evenodd" d="M14.4516 16C15.3032 16 16 15.3032 16 14.4516C16 11.4839 14.3226 8.77419 11.7419 7.38065C12.3097 6.60645 12.6452 5.67742 12.6452 4.64516C12.6452 2.09032 10.5548 0 8 0C5.44516 0 3.35484 2.09032 3.35484 4.64516C3.35484 5.67742 3.69032 6.60645 4.25806 7.38065C1.67742 8.74839 0 11.4581 0 14.4516C0 15.3032 0.696774 16 1.54839 16H14.4516ZM8 1.54839C9.70323 1.54839 11.0968 2.94194 11.0968 4.64516C11.0968 6.34839 9.70323 7.74194 8 7.74194C6.29677 7.74194 4.90323 6.34839 4.90323 4.64516C4.90323 2.94194 6.29677 1.54839 8 1.54839ZM8 9.29032C7.07097 9.29032 6.16774 9.00645 5.44516 8.51613C3.09677 9.54839 1.54839 11.871 1.54839 14.4516H14.4516C14.4516 11.871 12.9032 9.54839 10.5548 8.51613C9.83226 9.00645 8.95484 9.29032 8 9.29032Z" fill="#7F8489"/>
</svg>
