<svg width="15" height="15" viewBox="0 0 15 15" fill="none" xmlns="http://www.w3.org/2000/svg">
<path d="M13.2305 8.46602C13.2614 8.21929 13.2845 7.97255 13.2845 7.7104C13.2845 7.44825 13.2614 7.20151 13.2305 6.95478L14.8574 5.68256C15.0039 5.56691 15.0425 5.35873 14.9499 5.1891L13.4079 2.5213C13.3385 2.39793 13.2074 2.32854 13.0686 2.32854C13.0223 2.32854 12.9761 2.33625 12.9375 2.35167L11.0176 3.12271C10.6167 2.8143 10.1849 2.55985 9.71459 2.36709L9.42159 0.323837C9.39846 0.138787 9.23654 0 9.04378 0H5.95962C5.76686 0 5.60494 0.138787 5.58181 0.323837L5.28882 2.36709C4.81848 2.55985 4.3867 2.82201 3.98576 3.12271L2.06587 2.35167C2.01961 2.33625 1.97335 2.32854 1.92708 2.32854C1.79601 2.32854 1.66493 2.39793 1.59554 2.5213L0.0534574 5.1891C-0.0467778 5.35873 -0.000515288 5.56691 0.145982 5.68256L1.77288 6.95478C1.74204 7.20151 1.7189 7.45596 1.7189 7.7104C1.7189 7.96484 1.74204 8.21929 1.77288 8.46602L0.145982 9.73823C-0.000515288 9.85389 -0.0390674 10.0621 0.0534574 10.2317L1.59554 12.8995C1.66493 13.0229 1.79601 13.0923 1.9348 13.0923C1.98106 13.0923 2.02732 13.0845 2.06587 13.0691L3.98576 12.2981C4.3867 12.6065 4.81848 12.8609 5.28882 13.0537L5.58181 15.097C5.60494 15.282 5.76686 15.4208 5.95962 15.4208H9.04378C9.23654 15.4208 9.39846 15.282 9.42159 15.097L9.71459 13.0537C10.1849 12.8609 10.6167 12.5988 11.0176 12.2981L12.9375 13.0691C12.9838 13.0845 13.0301 13.0923 13.0763 13.0923C13.2074 13.0923 13.3385 13.0229 13.4079 12.8995L14.9499 10.2317C15.0425 10.0621 15.0039 9.85389 14.8574 9.73823L13.2305 8.46602ZM11.7039 7.14754C11.7347 7.38656 11.7424 7.54848 11.7424 7.7104C11.7424 7.87232 11.727 8.04195 11.7039 8.27326L11.5959 9.14453L12.2822 9.68426L13.1149 10.3319L12.5751 11.2649L11.5959 10.8717L10.794 10.5478L10.1001 11.0721C9.76856 11.3189 9.45243 11.5039 9.13631 11.635L8.31901 11.9665L8.19564 12.8378L8.04143 13.8787H6.96198L6.81548 12.8378L6.69211 11.9665L5.87481 11.635C5.54326 11.4962 5.23485 11.3189 4.92643 11.0876L4.22478 10.5478L3.40748 10.8794L2.42826 11.2726L1.88853 10.3396L2.72126 9.69197L3.40748 9.15224L3.29954 8.28097C3.2764 8.04195 3.26098 7.86461 3.26098 7.7104C3.26098 7.55619 3.2764 7.37885 3.29954 7.14754L3.40748 6.27627L2.72126 5.73654L1.88853 5.08886L2.42826 4.15591L3.40748 4.54914L4.20936 4.87297L4.9033 4.34867C5.23485 4.10193 5.55097 3.91688 5.8671 3.78581L6.6844 3.45426L6.80777 2.58298L6.96198 1.54208H8.03372L8.18022 2.58298L8.30359 3.45426L9.12089 3.78581C9.45243 3.92459 9.76085 4.10193 10.0693 4.33324L10.7709 4.87297L11.5882 4.54143L12.5674 4.1482L13.1072 5.08115L12.2822 5.73654L11.5959 6.27627L11.7039 7.14754ZM7.5017 4.62624C5.79771 4.62624 4.41754 6.0064 4.41754 7.7104C4.41754 9.4144 5.79771 10.7946 7.5017 10.7946C9.2057 10.7946 10.5859 9.4144 10.5859 7.7104C10.5859 6.0064 9.2057 4.62624 7.5017 4.62624ZM7.5017 9.25248C6.65356 9.25248 5.95962 8.55854 5.95962 7.7104C5.95962 6.86226 6.65356 6.16832 7.5017 6.16832C8.34985 6.16832 9.04378 6.86226 9.04378 7.7104C9.04378 8.55854 8.34985 9.25248 7.5017 9.25248Z" fill="white"/>
</svg>
