<svg width="19" height="12" viewBox="0 0 19 12" fill="none" xmlns="http://www.w3.org/2000/svg">
<path d="M18.563 3.66077L15.1423 0.240059C14.981 0.084281 14.765 -0.00191613 14.5408 3.2328e-05C14.3166 0.00198078 14.1021 0.0919188 13.9435 0.250476C13.785 0.409033 13.695 0.623522 13.6931 0.847747C13.6911 1.07197 13.7773 1.28799 13.9331 1.44928L15.894 3.4102H4.27559C4.04878 3.4102 3.83126 3.5003 3.67089 3.66068C3.51051 3.82106 3.42041 4.03857 3.42041 4.26538C3.42041 4.49219 3.51051 4.70971 3.67089 4.87008C3.83126 5.03046 4.04878 5.12056 4.27559 5.12056H17.9584C18.1276 5.12052 18.2929 5.07035 18.4335 4.97638C18.5741 4.88241 18.6836 4.74886 18.7483 4.59262C18.8131 4.43638 18.83 4.26446 18.797 4.0986C18.764 3.93273 18.6826 3.78037 18.563 3.66077Z" fill="#74797D"/>
<path d="M14.5378 6.83093H0.854996C0.685884 6.83097 0.52058 6.88114 0.37998 6.97511C0.23938 7.06908 0.129798 7.20263 0.0650869 7.35887C0.000375528 7.51511 -0.0165598 7.68703 0.0164223 7.8529C0.0494045 8.01876 0.130823 8.17112 0.250385 8.29072L3.6711 11.7114C3.83239 11.8672 4.04841 11.9534 4.27263 11.9515C4.49686 11.9495 4.71134 11.8596 4.8699 11.701C5.02846 11.5425 5.1184 11.328 5.12035 11.1037C5.12229 10.8795 5.0361 10.6635 4.88032 10.5022L2.91948 8.54129H14.5378C14.7647 8.54129 14.9822 8.45119 15.1425 8.29081C15.3029 8.13044 15.393 7.91292 15.393 7.68611C15.393 7.4593 15.3029 7.24178 15.1425 7.08141C14.9822 6.92103 14.7647 6.83093 14.5378 6.83093Z" fill="#74797D"/>
</svg>
