<svg width="14" height="18" viewBox="0 0 14 18" fill="none" xmlns="http://www.w3.org/2000/svg">
<path fill-rule="evenodd" clip-rule="evenodd" d="M13.7268 13.6523L12.5364 12.4615V7.84615C12.5364 5.01231 11.0232 2.64 8.38423 2.01231V1.38462C8.38423 0.618462 7.76601 0 7.00016 0C6.2343 0 5.61609 0.618462 5.61609 1.38462V2.01231C2.96789 2.64 1.46387 5.00308 1.46387 7.84615V12.4615L0.273564 13.6523C-0.307747 14.2338 0.0982481 15.2308 0.919465 15.2308H13.0716C13.9021 15.2308 14.3081 14.2338 13.7268 13.6523ZM10.6908 13.3846H3.30908V7.84618C3.30908 5.55695 4.70238 3.69233 6.99994 3.69233C9.2975 3.69233 10.6908 5.55695 10.6908 7.84618V13.3846ZM7.00022 18C8.0152 18 8.84565 17.1692 8.84565 16.1538H5.15479C5.15479 17.1692 5.976 18 7.00022 18Z" fill="#7F8489"/>
</svg>
