<svg width="15" height="21" viewBox="0 0 15 21" fill="none" xmlns="http://www.w3.org/2000/svg">
<path d="M4.85884 2.49583V1.07831C4.85884 0.481874 5.34836 0 5.94906 0C6.54975 0 7.03928 0.482018 7.03928 1.07831V2.49583L9.31435 2.49583V1.07831C9.31435 0.481874 9.79982 0 10.4046 0C11.0053 0 11.4906 0.482018 11.4906 1.07831V2.62653C12.3174 2.82669 13.058 3.2515 13.6464 3.82733C14.4816 4.65259 15 5.78796 15 7.0379C15 8.37775 14.3993 9.6359 13.3666 10.4978C14.3993 11.3596 15 12.6178 15 13.9618C15 15.2077 14.4816 16.3431 13.6464 17.1684C13.058 17.7484 12.3175 18.1732 11.4906 18.3733V19.9175C11.4906 20.5138 11.0051 21 10.4046 21C9.79982 21 9.31435 20.5138 9.31435 19.9175V18.504H7.03928V19.9175C7.03928 20.5138 6.54975 21 5.94906 21C5.34836 21 4.85884 20.5138 4.85884 19.9175V18.504H1.09022C0.489528 18.504 0 18.0178 0 17.4215C0 16.8251 0.489528 16.339 1.09022 16.339H2.23008V10.4979L2.23008 4.65663H1.09022C0.489528 4.65663 0 4.17461 0 3.57817C0 2.9777 0.489528 2.49569 1.09022 2.49569C2.34517 2.49583 3.60403 2.49583 4.85884 2.49583ZM10.4044 11.5804H4.40632L4.40632 16.3392H10.4044C11.0709 16.3392 11.6756 16.0738 12.1158 15.6407C12.5519 15.2117 12.8235 14.6155 12.8235 13.962C12.8235 13.3041 12.5519 12.7119 12.1158 12.2789C11.6756 11.8458 11.0707 11.5804 10.4044 11.5804ZM10.4044 4.65663H4.40632V9.41946H10.4044C11.0709 9.41946 11.6756 9.14984 12.1158 8.71682C12.5519 8.28798 12.8235 7.69154 12.8235 7.0379C12.8235 6.3844 12.5519 5.78796 12.1158 5.35494C11.6756 4.92624 11.0707 4.65663 10.4044 4.65663Z" fill="white"/>
</svg>
