<svg width="16" height="16" viewBox="0 0 16 16" fill="none" xmlns="http://www.w3.org/2000/svg">
<path d="M0 15.9999H7.27271V8.72708H0V15.9999ZM1.45443 10.1817H5.81812V14.5341H1.45443V10.1817Z" fill="#7F8489"/>
<path d="M4.36369 11.6362H2.90918V13.0909H4.36369V11.6362Z" fill="#7F8489"/>
<path d="M13.0906 14.5455H11.6357V16H13.0906V14.5455Z" fill="#7F8489"/>
<path d="M15.9997 14.5455H14.5449V16H15.9997V14.5455Z" fill="#7F8489"/>
<path d="M14.5458 10.1817H13.0913V8.72708H8.72754V15.9999H10.1822V11.6362H11.6365V13.0909H16.0003V8.72708H14.5458V10.1817Z" fill="#7F8489"/>
<path d="M0 7.27287H7.27271V0H0V7.27287ZM1.45443 1.45443H5.81812V5.81812H1.45443V1.45443Z" fill="#7F8489"/>
<path d="M4.36369 2.90906H2.90918V4.36369H4.36369V2.90906Z" fill="#7F8489"/>
<path d="M8.72754 0V7.27287H16.0004V0H8.72754ZM14.5458 5.81812H10.1822V1.45443H14.5458V5.81812Z" fill="#7F8489"/>
<path d="M13.0906 2.90906H11.6357V4.36369H13.0906V2.90906Z" fill="#7F8489"/>
</svg>
