<svg width="16" height="16" viewBox="0 0 16 16" fill="none" xmlns="http://www.w3.org/2000/svg">
<path d="M15.9843 0.487049C15.9063 0.14076 15.5282 -0.0880482 15.184 0.0325068C15.184 0.0325068 0.412658 5.24897 0.403437 5.25328C0.160014 5.356 -0.0133322 5.58911 0.000806027 5.86097C0.0124854 6.07687 0.152638 6.29645 0.350573 6.38871L6.66727 9.33923C6.66727 9.33923 9.60679 15.6413 9.62584 15.6751C9.88894 16.15 10.5479 16.0854 10.7526 15.6044C10.7526 15.6044 15.9677 0.81919 15.9684 0.81673C16.0052 0.712782 16.0089 0.596532 15.9843 0.487049ZM10.093 13.7758L7.86841 9.00709L9.73772 7.13664C9.97807 6.89615 9.97807 6.50742 9.73772 6.26693C9.49737 6.02643 9.10888 6.02643 8.86853 6.26693L6.99921 8.13737L2.2328 5.9108L14.3806 1.62064L10.093 13.7758Z" fill="#7F8489"/>
</svg>
