<svg width="18" height="18" viewBox="0 0 18 18" fill="none" xmlns="http://www.w3.org/2000/svg">
<path d="M7.125 4.875V7.125H4.875V4.875H7.125ZM8.25 3.75H3.75V8.25H8.25V3.75ZM7.125 10.875V13.125H4.875V10.875H7.125ZM8.25 9.75H3.75V14.25H8.25V9.75ZM13.125 4.875V7.125H10.875V4.875H13.125ZM14.25 3.75H9.75V8.25H14.25V3.75ZM9.75 9.75H10.875V10.875H9.75V9.75ZM10.875 10.875H12V12H10.875V10.875ZM12 9.75H13.125V10.875H12V9.75ZM9.75 12H10.875V13.125H9.75V12ZM10.875 13.125H12V14.25H10.875V13.125ZM12 12H13.125V13.125H12V12ZM13.125 10.875H14.25V12H13.125V10.875ZM13.125 13.125H14.25V14.25H13.125V13.125ZM16.5 5.25H15V3H12.75V1.5H16.5V5.25ZM16.5 16.5V12.75H15V15H12.75V16.5H16.5ZM1.5 16.5H5.25V15H3V12.75H1.5V16.5ZM1.5 1.5V5.25H3V3H5.25V1.5H1.5Z" fill="white"/>
</svg>
