<svg width="19" height="14" viewBox="0 0 19 14" fill="none" xmlns="http://www.w3.org/2000/svg">
<path d="M3.18457 5.3637C3.34204 5.3637 3.49307 5.29546 3.60441 5.17399C3.71576 5.05252 3.77832 4.88776 3.77832 4.71598V1.47734H6.74707C6.90454 1.47734 7.05557 1.4091 7.16691 1.28762C7.27826 1.16615 7.34082 1.0014 7.34082 0.829612C7.34082 0.657824 7.27826 0.493072 7.16691 0.3716C7.05557 0.250127 6.90454 0.181885 6.74707 0.181885H3.18457C3.0271 0.181885 2.87608 0.250127 2.76473 0.3716C2.65338 0.493072 2.59082 0.657824 2.59082 0.829612V4.71598C2.59082 4.88776 2.65338 5.05252 2.76473 5.17399C2.87608 5.29546 3.0271 5.3637 3.18457 5.3637Z" fill="#7F8489"/>
<path d="M11.8753 1.47734H15.1139V4.71598C15.1139 4.88776 15.1821 5.05252 15.3036 5.17399C15.4251 5.29546 15.5898 5.3637 15.7616 5.3637C15.9334 5.3637 16.0982 5.29546 16.2196 5.17399C16.3411 5.05252 16.4094 4.88776 16.4094 4.71598V0.829612C16.4094 0.657824 16.3411 0.493072 16.2196 0.3716C16.0982 0.250127 15.9334 0.181885 15.7616 0.181885H11.8753C11.7035 0.181885 11.5387 0.250127 11.4173 0.3716C11.2958 0.493072 11.2275 0.657824 11.2275 0.829612C11.2275 1.0014 11.2958 1.16615 11.4173 1.28762C11.5387 1.4091 11.7035 1.47734 11.8753 1.47734Z" fill="#7F8489"/>
<path d="M6.74707 12.7045H3.77832V9.46584C3.77832 9.29405 3.71576 9.1293 3.60441 9.00783C3.49307 8.88636 3.34204 8.81812 3.18457 8.81812C3.0271 8.81812 2.87608 8.88636 2.76473 9.00783C2.65338 9.1293 2.59082 9.29405 2.59082 9.46584V13.3522C2.59082 13.524 2.65338 13.6887 2.76473 13.8102C2.87608 13.9317 3.0271 13.9999 3.18457 13.9999H6.74707C6.90454 13.9999 7.05557 13.9317 7.16691 13.8102C7.27826 13.6887 7.34082 13.524 7.34082 13.3522C7.34082 13.1804 7.27826 13.0157 7.16691 12.8942C7.05557 12.7727 6.90454 12.7045 6.74707 12.7045Z" fill="#7F8489"/>
<path d="M15.7616 8.81812C15.5898 8.81812 15.4251 8.88636 15.3036 9.00783C15.1821 9.1293 15.1139 9.29405 15.1139 9.46584V12.7045H11.8753C11.7035 12.7045 11.5387 12.7727 11.4173 12.8942C11.2958 13.0157 11.2275 13.1804 11.2275 13.3522C11.2275 13.524 11.2958 13.6887 11.4173 13.8102C11.5387 13.9317 11.7035 13.9999 11.8753 13.9999H15.7616C15.9334 13.9999 16.0982 13.9317 16.2196 13.8102C16.3411 13.6887 16.4094 13.524 16.4094 13.3522V9.46584C16.4094 9.29405 16.3411 9.1293 16.2196 9.00783C16.0982 8.88636 15.9334 8.81812 15.7616 8.81812Z" fill="#7F8489"/>
<path d="M18.3667 6.65918H0.633333C0.465363 6.65918 0.304272 6.70467 0.185499 6.78566C0.066726 6.86664 0 6.97647 0 7.091C0 7.20552 0.066726 7.31536 0.185499 7.39634C0.304272 7.47732 0.465363 7.52282 0.633333 7.52282H18.3667C18.5346 7.52282 18.6957 7.47732 18.8145 7.39634C18.9333 7.31536 19 7.20552 19 7.091C19 6.97647 18.9333 6.86664 18.8145 6.78566C18.6957 6.70467 18.5346 6.65918 18.3667 6.65918Z" fill="#7F8489"/>
</svg>
