<svg width="259" height="259" viewBox="0 0 259 259" fill="none" xmlns="http://www.w3.org/2000/svg">
<g opacity="0.2">
<path opacity="0.2" fill-rule="evenodd" clip-rule="evenodd" d="M129.5 259C201.021 259 259 201.021 259 129.5C259 57.9791 201.021 0 129.5 0C57.9791 0 0 57.9791 0 129.5C0 201.021 57.9791 259 129.5 259Z" fill="url(#paint0_linear)"/>
<path opacity="0.2" fill-rule="evenodd" clip-rule="evenodd" d="M128.5 226C181.795 226 225 182.795 225 129.5C225 76.2045 181.795 33 128.5 33C75.2045 33 32 76.2045 32 129.5C32 182.795 75.2045 226 128.5 226Z" fill="url(#paint1_linear)"/>
<path opacity="0.2" fill-rule="evenodd" clip-rule="evenodd" d="M129 192C163.794 192 192 163.794 192 129C192 94.2061 163.794 66 129 66C94.2061 66 66 94.2061 66 129C66 163.794 94.2061 192 129 192Z" fill="url(#paint2_linear)"/>
</g>
<path opacity="0.3" fill-rule="evenodd" clip-rule="evenodd" d="M106.852 107.906C106.852 95.694 116.788 85.758 129 85.758C141.213 85.758 151.148 95.693 151.148 107.906V150.094C151.148 162.306 141.213 172.242 129 172.242C116.789 172.242 106.852 162.307 106.852 150.094V149.726V145.174V145.165V145.163V107.906ZM143.478 156.717C141.997 160.426 140.287 164.14 138.388 167.791C144.719 164.419 149.039 157.753 149.04 150.095V138.417C148.299 141.926 147.384 145.415 146.289 148.866C146.146 149.315 145.731 149.602 145.284 149.602C145.178 149.602 145.07 149.585 144.965 149.552C144.409 149.376 144.102 148.783 144.278 148.228C146.926 139.878 148.528 131.308 149.04 122.756V107.906C149.04 96.856 140.051 87.867 129.001 87.867C117.952 87.867 108.962 96.856 108.962 107.906V139.595C112.533 129.494 113.794 119.274 112.694 109.139C112.66 108.824 112.638 108.509 112.621 108.196C112.619 108.144 112.617 108.092 112.616 108.04C112.615 108.005 112.614 107.971 112.613 107.936C112.604 107.71 112.6 107.486 112.601 107.263C112.601 107.24 112.6 107.218 112.6 107.195C112.599 107.173 112.598 107.151 112.598 107.129C112.599 107.073 112.602 107.017 112.604 106.962C112.606 106.92 112.608 106.878 112.609 106.836L112.609 106.833C112.612 106.726 112.615 106.618 112.621 106.511C112.63 106.341 112.641 106.171 112.656 106.001C112.662 105.911 112.668 105.821 112.677 105.73C112.697 105.521 112.724 105.313 112.752 105.106C112.756 105.081 112.759 105.056 112.762 105.031C112.765 105.007 112.768 104.983 112.771 104.959C113.241 101.744 114.655 98.718 116.862 96.272C116.884 96.2484 116.908 96.2283 116.931 96.2086C116.939 96.2024 116.946 96.1962 116.953 96.19C119.573 93.328 123.2 91.365 127.352 90.915C136.417 89.928 144.594 96.507 145.578 105.571C145.64 106.15 145.221 106.671 144.643 106.734C144.06 106.794 143.543 106.378 143.48 105.799C142.622 97.89 135.491 92.156 127.58 93.012C120.911 93.735 115.788 98.919 114.858 105.268C114.856 105.284 114.854 105.3 114.852 105.316C114.85 105.334 114.848 105.351 114.845 105.368C114.819 105.558 114.796 105.749 114.776 105.941C114.771 105.99 114.768 106.04 114.764 106.09C114.762 106.116 114.76 106.141 114.758 106.167C114.746 106.317 114.735 106.468 114.727 106.619C114.722 106.714 114.719 106.808 114.716 106.904C114.713 107.026 114.71 107.149 114.709 107.272C114.708 107.467 114.713 107.664 114.72 107.861C114.721 107.894 114.722 107.926 114.723 107.959C114.724 108.003 114.725 108.046 114.727 108.09C114.741 108.363 114.761 108.636 114.79 108.907C114.79 108.909 114.79 108.911 114.791 108.912C114.873 109.675 114.943 110.437 115 111.201C115.009 111.327 115.017 111.453 115.024 111.579C115.032 111.72 115.04 111.86 115.051 112C115.057 112.087 115.062 112.174 115.068 112.261C115.094 112.669 115.12 113.077 115.136 113.486C115.145 113.703 115.149 113.92 115.153 114.137C115.155 114.263 115.158 114.389 115.161 114.516C115.164 114.657 115.169 114.797 115.173 114.938C115.181 115.218 115.189 115.497 115.191 115.777C115.192 116.015 115.189 116.253 115.186 116.49C115.184 116.619 115.182 116.748 115.181 116.877C115.18 117.002 115.179 117.128 115.178 117.254C115.177 117.526 115.176 117.798 115.168 118.07C115.161 118.322 115.149 118.574 115.137 118.826C115.131 118.951 115.125 119.077 115.12 119.202C115.114 119.331 115.109 119.46 115.104 119.589C115.094 119.847 115.084 120.104 115.069 120.363C115.054 120.616 115.033 120.868 115.012 121.121C115.002 121.247 114.992 121.374 114.982 121.5C114.974 121.609 114.966 121.719 114.958 121.828C114.938 122.104 114.918 122.38 114.893 122.657C114.87 122.898 114.843 123.138 114.815 123.379C114.799 123.519 114.783 123.66 114.768 123.8C114.753 123.936 114.738 124.071 114.724 124.207C114.698 124.454 114.672 124.702 114.64 124.949C114.606 125.218 114.566 125.487 114.526 125.756C114.51 125.868 114.493 125.98 114.477 126.092C114.457 126.227 114.438 126.362 114.42 126.497C114.385 126.745 114.35 126.994 114.31 127.242C114.271 127.493 114.225 127.744 114.18 127.994C114.157 128.119 114.134 128.245 114.112 128.37C114.096 128.46 114.081 128.549 114.065 128.639C114.014 128.937 113.962 129.236 113.904 129.534C113.851 129.807 113.793 130.08 113.734 130.352C113.712 130.452 113.691 130.551 113.67 130.65C113.646 130.765 113.622 130.88 113.599 130.995C113.542 131.271 113.485 131.547 113.422 131.823C113.365 132.072 113.303 132.322 113.241 132.571C113.211 132.69 113.181 132.81 113.152 132.929C113.118 133.065 113.086 133.202 113.053 133.338C112.991 133.595 112.929 133.852 112.862 134.11C112.79 134.384 112.713 134.657 112.635 134.93C112.609 135.024 112.582 135.117 112.556 135.211C112.53 135.306 112.504 135.401 112.478 135.497C112.396 135.796 112.314 136.095 112.225 136.395C112.15 136.649 112.07 136.902 111.99 137.155C111.954 137.267 111.919 137.379 111.884 137.491C111.851 137.599 111.817 137.707 111.784 137.815C111.696 138.102 111.608 138.389 111.513 138.676C111.434 138.916 111.35 139.156 111.266 139.395C111.223 139.518 111.179 139.641 111.137 139.764C111.096 139.884 111.055 140.003 111.014 140.123C110.919 140.4 110.825 140.677 110.724 140.953C110.626 141.222 110.522 141.491 110.419 141.76C110.384 141.85 110.35 141.94 110.315 142.03C110.287 142.104 110.259 142.178 110.231 142.253C110.11 142.577 109.988 142.901 109.859 143.225C109.761 143.47 109.659 143.716 109.556 143.961C109.509 144.073 109.462 144.184 109.416 144.296C109.371 144.406 109.325 144.517 109.28 144.628C109.177 144.882 109.073 145.135 108.964 145.389V149.722V150.09C108.964 150.819 109.006 151.54 109.082 152.25C112.446 145.723 114.913 139.063 116.422 132.416C116.552 131.848 117.116 131.491 117.685 131.621C118.253 131.75 118.609 132.316 118.48 132.883C116.762 140.453 113.839 148.032 109.791 155.415C110.054 156.305 110.383 157.184 110.771 158.033C110.851 158.209 110.875 158.396 110.856 158.576C110.953 158.782 111.055 158.985 111.159 159.187C118.847 145.99 122.956 132.367 123.375 118.669C123.393 118.086 123.886 117.63 124.462 117.647C125.044 117.665 125.501 118.152 125.483 118.734C125.045 133.074 120.676 147.316 112.497 161.075C112.876 161.626 113.282 162.157 113.707 162.66C113.865 162.846 113.942 163.07 113.952 163.297C114.113 163.481 114.279 163.662 114.448 163.84C125.615 145.583 130.227 126.619 128.148 107.46C128.119 107.196 128.195 106.936 128.362 106.728C128.529 106.52 128.767 106.39 129.033 106.362C129.069 106.358 129.103 106.356 129.137 106.356C129.648 106.356 130.074 106.739 130.129 107.245C132.27 126.98 127.486 146.49 115.916 165.245C116.151 165.448 116.39 165.647 116.635 165.839C116.883 165.813 117.141 165.87 117.36 166.026C117.819 166.354 118.289 166.663 118.766 166.948C123.05 159.987 126.463 152.787 128.918 145.531C129.105 144.98 129.702 144.683 130.256 144.87C130.807 145.058 131.104 145.655 130.916 146.208C128.392 153.669 124.874 161.068 120.461 168.214C120.652 168.305 120.846 168.392 121.041 168.476C121.29 168.361 121.583 168.342 121.86 168.447C122.402 168.655 122.959 168.84 123.521 169C125.275 166.114 126.901 163.163 128.359 160.222C128.618 159.699 129.251 159.485 129.772 159.745C130.294 160.004 130.508 160.637 130.249 161.158C128.81 164.06 127.206 166.965 125.484 169.816C126.57 170.009 127.683 170.117 128.821 170.127C129.186 169.508 129.545 168.884 129.899 168.259C129.956 168.157 130.013 168.055 130.07 167.953C130.107 167.887 130.143 167.822 130.18 167.756C130.469 167.24 130.754 166.724 131.034 166.205C131.083 166.114 131.132 166.024 131.18 165.933C131.229 165.842 131.278 165.751 131.327 165.66C131.609 165.131 131.887 164.602 132.16 164.072L132.395 163.617C132.737 162.945 133.074 162.273 133.399 161.602C133.619 161.149 133.835 160.695 134.049 160.24C134.07 160.194 134.092 160.149 134.113 160.103C134.131 160.066 134.148 160.03 134.165 159.993C134.387 159.516 134.606 159.039 134.821 158.56C134.829 158.543 134.837 158.525 134.845 158.507C134.859 158.475 134.874 158.443 134.888 158.411C135.116 157.904 135.34 157.394 135.56 156.884C135.562 156.881 135.564 156.877 135.565 156.873C135.567 156.87 135.568 156.866 135.57 156.863C136.707 154.22 137.736 151.556 138.641 148.898C141.003 141.97 142.605 134.896 143.424 127.79L143.439 127.667C143.499 127.141 143.553 126.614 143.605 126.088C143.613 126.008 143.62 125.929 143.628 125.849C143.631 125.811 143.634 125.773 143.638 125.735C143.681 125.278 143.721 124.821 143.758 124.364C143.768 124.238 143.777 124.112 143.786 123.986C143.791 123.92 143.795 123.855 143.8 123.79C143.829 123.396 143.857 123.004 143.881 122.61C143.892 122.443 143.901 122.277 143.909 122.11C143.914 122.027 143.918 121.943 143.923 121.86C143.942 121.514 143.96 121.17 143.976 120.824C144.105 117.803 144.098 114.772 143.949 111.731C143.921 111.15 144.369 110.655 144.951 110.627C145.549 110.596 146.028 111.047 146.056 111.628C146.204 114.651 146.213 117.665 146.091 120.668C146.091 120.67 146.091 120.671 146.091 120.673C146.092 120.68 146.094 120.687 146.093 120.694C146.092 120.734 146.09 120.774 146.087 120.814C146.086 120.835 146.085 120.855 146.084 120.876C146.071 121.179 146.055 121.482 146.039 121.784C146.033 121.882 146.028 121.98 146.023 122.078C146.02 122.13 146.018 122.182 146.015 122.233C146.007 122.386 145.999 122.538 145.989 122.691C145.961 123.146 145.929 123.6 145.895 124.054C145.886 124.193 145.876 124.332 145.865 124.47C145.823 124.996 145.777 125.522 145.727 126.047C145.725 126.076 145.722 126.104 145.719 126.133C145.716 126.161 145.714 126.19 145.711 126.219C144.629 137.447 141.652 148.505 136.8 159.301C136.792 159.321 136.783 159.34 136.774 159.36C136.544 159.874 136.309 160.385 136.07 160.898C136.044 160.954 136.016 161.01 135.99 161.067C135.439 162.241 134.866 163.411 134.271 164.578C134.257 164.605 134.244 164.631 134.23 164.658C134.166 164.782 134.102 164.906 134.039 165.029C133.759 165.57 133.475 166.111 133.186 166.652C133.087 166.838 132.988 167.023 132.887 167.209C132.606 167.728 132.321 168.245 132.032 168.762C132.005 168.811 131.978 168.859 131.951 168.908C131.877 169.042 131.802 169.175 131.726 169.309C131.617 169.502 131.507 169.694 131.396 169.886L131.335 169.993C132.705 169.834 134.035 169.534 135.308 169.111C135.313 169.101 135.317 169.09 135.32 169.079C135.327 169.062 135.333 169.045 135.342 169.029C137.686 164.735 139.765 160.33 141.519 155.935C141.735 155.394 142.348 155.131 142.889 155.347C143.431 155.563 143.694 156.176 143.478 156.717Z" fill="white"/>
<path opacity="0.3" d="M135.314 106.685C135.134 105.034 134.323 103.551 133.029 102.511C131.735 101.47 130.112 100.995 128.465 101.176C126.815 101.355 125.332 102.166 124.291 103.461C123.251 104.754 122.777 106.376 122.956 108.026C123.15 109.811 123.283 111.625 123.352 113.416C123.373 113.998 123.853 114.442 124.446 114.43C125.028 114.409 125.482 113.918 125.46 113.336C125.39 111.496 125.253 109.633 125.054 107.799C124.936 106.708 125.249 105.638 125.937 104.782C126.625 103.926 127.603 103.391 128.694 103.273C129.784 103.153 130.854 103.466 131.709 104.154C132.564 104.842 133.101 105.822 133.22 106.913C134.108 115.099 133.866 123.333 132.499 131.39C132.401 131.964 132.788 132.509 133.362 132.606C133.422 132.617 133.481 132.622 133.54 132.622C134.045 132.622 134.491 132.258 134.578 131.743C135.976 123.494 136.224 115.063 135.314 106.685Z" fill="white"/>
<path opacity="0.3" d="M139.283 105.193C138.704 105.255 138.286 105.776 138.348 106.355C139.687 118.693 138.593 131.032 135.097 143.029C134.933 143.588 135.255 144.174 135.814 144.337C135.913 144.365 136.012 144.379 136.11 144.379C136.566 144.379 136.988 144.08 137.122 143.619C140.696 131.355 141.814 118.742 140.445 106.128C140.383 105.549 139.857 105.132 139.283 105.193Z" fill="white"/>
<path opacity="0.3" d="M128.136 98.143C128.715 98.081 129.133 97.56 129.071 96.981C129.009 96.402 128.482 95.984 127.909 96.046C121.673 96.723 117.149 102.347 117.825 108.583C118.432 114.182 118.377 119.855 117.659 125.449C117.585 126.027 117.993 126.555 118.57 126.63C118.616 126.636 118.661 126.639 118.706 126.639C119.228 126.639 119.683 126.25 119.751 125.718C120.49 119.96 120.548 114.118 119.922 108.356C119.371 103.275 123.056 98.694 128.136 98.143Z" fill="white"/>
<defs>
<linearGradient id="paint0_linear" x1="-3.59489" y1="1.79745" x2="-2.06669e-06" y2="260.797" gradientUnits="userSpaceOnUse">
<stop/>
<stop offset="1" stop-opacity="0.01"/>
</linearGradient>
<linearGradient id="paint1_linear" x1="29.3212" y1="34.3394" x2="32" y2="227.339" gradientUnits="userSpaceOnUse">
<stop/>
<stop offset="1" stop-opacity="0.01"/>
</linearGradient>
<linearGradient id="paint2_linear" x1="64.2511" y1="66.8744" x2="66" y2="192.874" gradientUnits="userSpaceOnUse">
<stop/>
<stop offset="1" stop-opacity="0.01"/>
</linearGradient>
</defs>
</svg>
