<svg width="14" height="14" viewBox="0 0 14 14" fill="none" xmlns="http://www.w3.org/2000/svg">
<path d="M0.482327 2.10864H3.71647C3.8444 2.10864 3.96709 2.15946 4.05755 2.24992C4.148 2.34038 4.19882 2.46306 4.19882 2.59099C4.19882 2.71892 4.148 2.84161 4.05755 2.93206C3.96709 3.02252 3.8444 3.07334 3.71647 3.07334H0.964675V12.0595H9.95083V8.56247C9.95083 8.43454 10.0016 8.31185 10.0921 8.2214C10.1826 8.13094 10.3053 8.08012 10.4332 8.08012C10.5611 8.08012 10.6838 8.13094 10.7743 8.2214C10.8647 8.31185 10.9155 8.43454 10.9155 8.56247V12.5418C10.9155 12.6698 10.8647 12.7925 10.7743 12.8829C10.6838 12.9734 10.5611 13.0242 10.4332 13.0242H0.482327C0.3544 13.0242 0.231712 12.9734 0.141254 12.8829C0.0507965 12.7925 -2.19345e-05 12.6698 -2.19345e-05 12.5418V2.59099C-2.19345e-05 2.46306 0.0507965 2.34038 0.141254 2.24992C0.231712 2.15946 0.3544 2.10864 0.482327 2.10864Z" fill="#6A6B6F"/>
<path d="M10.5416 4.73257L11.9066 2.91652C8.00442 2.95752 4.84503 5.47297 4.84503 8.56242C4.84503 8.69034 4.79421 8.81303 4.70376 8.90349C4.6133 8.99395 4.49061 9.04476 4.36268 9.04476C4.23476 9.04476 4.11207 8.99395 4.02161 8.90349C3.93115 8.81303 3.88033 8.69034 3.88033 8.56242C3.88033 5.06539 7.23025 2.19782 11.4556 1.9663L10.0038 0.868954C9.90141 0.791878 9.83388 0.677304 9.81601 0.550437C9.79815 0.42357 9.83141 0.294802 9.90849 0.19246C9.98556 0.0901186 10.1001 0.022587 10.227 0.00472161C10.3539 -0.0131438 10.4826 0.0201203 10.585 0.0971962L13.1728 2.0483C13.2751 2.12505 13.3428 2.23932 13.3609 2.36596C13.379 2.4926 13.346 2.62124 13.2693 2.72358L11.3182 5.30656C11.242 5.40954 11.1281 5.47807 11.0015 5.49706C10.8748 5.51606 10.7458 5.48397 10.6429 5.40785C10.5399 5.33174 10.4714 5.21783 10.4524 5.09119C10.4334 4.96455 10.4655 4.83555 10.5416 4.73257Z" fill="#6A6B6F"/>
</svg>
