<svg width="17" height="14" viewBox="0 0 17 14" fill="none" xmlns="http://www.w3.org/2000/svg">
<path d="M15 0H1.66667C0.741667 0 0.00833333 0.741667 0.00833333 1.66667L0 11.6667C0 12.5917 0.741667 13.3333 1.66667 13.3333H15C15.925 13.3333 16.6667 12.5917 16.6667 11.6667V1.66667C16.6667 0.741667 15.925 0 15 0ZM15 10.8333C15 11.2917 14.625 11.6667 14.1667 11.6667H2.5C2.04167 11.6667 1.66667 11.2917 1.66667 10.8333V2.5C1.66667 2.04167 2.04167 1.66667 2.5 1.66667H14.1667C14.625 1.66667 15 2.04167 15 2.5V10.8333ZM10 5C10.4583 5 10.8333 4.625 10.8333 4.16667C10.8333 3.70833 10.4583 3.33333 10 3.33333H9.16667V3.325C9.16667 2.86667 8.79167 2.49167 8.33333 2.49167C7.875 2.49167 7.5 2.86667 7.5 3.325V3.33333H6.66667C6.20833 3.33333 5.83333 3.70833 5.83333 4.16667V6.66667C5.83333 7.125 6.20833 7.5 6.66667 7.5H9.16667V8.33333H6.66667C6.20833 8.33333 5.83333 8.70833 5.83333 9.16667C5.83333 9.625 6.20833 10 6.66667 10H7.5C7.5 10.4583 7.875 10.8333 8.33333 10.8333C8.79167 10.8333 9.16667 10.4583 9.16667 10H10C10.4583 10 10.8333 9.625 10.8333 9.16667V6.66667C10.8333 6.20833 10.4583 5.83333 10 5.83333H7.5V5H10Z" fill="#6B6D70"/>
</svg>
