<svg width="13" height="13" viewBox="0 0 13 13" fill="none" xmlns="http://www.w3.org/2000/svg">
<path d="M12.5 8.75V1.25C12.5 0.5625 11.9375 0 11.25 0H3.75C3.0625 0 2.5 0.5625 2.5 1.25V8.75C2.5 9.4375 3.0625 10 3.75 10H11.25C11.9375 10 12.5 9.4375 12.5 8.75ZM5.875 6.58125L6.89375 7.94375L8.50625 5.93125C8.63125 5.775 8.86875 5.775 8.99375 5.93125L10.8438 8.24375C11.0063 8.45 10.8625 8.75 10.6 8.75H4.375C4.11875 8.75 3.96875 8.45625 4.125 8.25L5.375 6.58125C5.5 6.41875 5.75 6.41875 5.875 6.58125ZM0 3.125V11.25C0 11.9375 0.5625 12.5 1.25 12.5H9.375C9.71875 12.5 10 12.2188 10 11.875C10 11.5312 9.71875 11.25 9.375 11.25H1.875C1.53125 11.25 1.25 10.9688 1.25 10.625V3.125C1.25 2.78125 0.96875 2.5 0.625 2.5C0.28125 2.5 0 2.78125 0 3.125Z" fill="#6B6D70"/>
</svg>
